<mxfile host="Electron" modified="2023-07-10T06:50:21.388Z" agent="Mozilla/5.0 (Windows NT 10.0; Win64; x64) AppleWebKit/537.36 (KHTML, like Gecko) draw.io/21.2.1 Chrome/112.0.5615.87 Electron/24.1.2 Safari/537.36" etag="gW_OaJIC_IdWAnKc78fj" version="21.2.1" type="device">
  <diagram name="Page-1" id="DZNfTBTOkv8_wLORwRNV">
    <mxGraphModel dx="3300" dy="3306" grid="1" gridSize="10" guides="1" tooltips="1" connect="1" arrows="1" fold="1" page="1" pageScale="1" pageWidth="827" pageHeight="1169" math="0" shadow="0">
      <root>
        <mxCell id="0" />
        <mxCell id="1" parent="0" />
        <mxCell id="jE7_QVE1kl2_efXZavg2-16" value="" style="whiteSpace=wrap;html=1;aspect=fixed;" parent="1" vertex="1">
          <mxGeometry x="480" y="-410" width="1280" height="1280" as="geometry" />
        </mxCell>
        <mxCell id="jE7_QVE1kl2_efXZavg2-17" value="" style="ellipse;whiteSpace=wrap;html=1;aspect=fixed;" parent="1" vertex="1">
          <mxGeometry x="160" y="70" width="80" height="80" as="geometry" />
        </mxCell>
        <mxCell id="jE7_QVE1kl2_efXZavg2-18" value="" style="endArrow=none;html=1;rounded=0;entryX=0.5;entryY=1;entryDx=0;entryDy=0;" parent="1" target="jE7_QVE1kl2_efXZavg2-17" edge="1">
          <mxGeometry width="50" height="50" relative="1" as="geometry">
            <mxPoint x="200" y="340" as="sourcePoint" />
            <mxPoint x="270" y="430" as="targetPoint" />
            <Array as="points" />
          </mxGeometry>
        </mxCell>
        <mxCell id="jE7_QVE1kl2_efXZavg2-19" value="" style="endArrow=none;html=1;rounded=0;" parent="1" edge="1">
          <mxGeometry width="50" height="50" relative="1" as="geometry">
            <mxPoint x="120" y="240" as="sourcePoint" />
            <mxPoint x="270" y="240" as="targetPoint" />
            <Array as="points">
              <mxPoint x="200" y="240" />
              <mxPoint x="240" y="240" />
            </Array>
          </mxGeometry>
        </mxCell>
        <mxCell id="jE7_QVE1kl2_efXZavg2-20" value="" style="endArrow=none;html=1;rounded=0;" parent="1" edge="1">
          <mxGeometry width="50" height="50" relative="1" as="geometry">
            <mxPoint x="110" y="410" as="sourcePoint" />
            <mxPoint x="200" y="340" as="targetPoint" />
          </mxGeometry>
        </mxCell>
        <mxCell id="jE7_QVE1kl2_efXZavg2-21" value="" style="endArrow=none;html=1;rounded=0;" parent="1" edge="1">
          <mxGeometry width="50" height="50" relative="1" as="geometry">
            <mxPoint x="280" y="410" as="sourcePoint" />
            <mxPoint x="200" y="340" as="targetPoint" />
          </mxGeometry>
        </mxCell>
        <mxCell id="jE7_QVE1kl2_efXZavg2-22" value="" style="endArrow=classic;html=1;rounded=0;entryX=0.033;entryY=0.654;entryDx=0;entryDy=0;entryPerimeter=0;" parent="1" edge="1" target="jE7_QVE1kl2_efXZavg2-40">
          <mxGeometry width="50" height="50" relative="1" as="geometry">
            <mxPoint x="320" y="190" as="sourcePoint" />
            <mxPoint x="470" y="160" as="targetPoint" />
            <Array as="points" />
          </mxGeometry>
        </mxCell>
        <mxCell id="jE7_QVE1kl2_efXZavg2-25" value="" style="edgeStyle=orthogonalEdgeStyle;rounded=0;orthogonalLoop=1;jettySize=auto;html=1;" parent="1" edge="1">
          <mxGeometry relative="1" as="geometry">
            <mxPoint x="885" y="90" as="sourcePoint" />
          </mxGeometry>
        </mxCell>
        <mxCell id="jE7_QVE1kl2_efXZavg2-27" value="" style="edgeStyle=orthogonalEdgeStyle;rounded=0;orthogonalLoop=1;jettySize=auto;html=1;" parent="1" edge="1">
          <mxGeometry relative="1" as="geometry">
            <mxPoint x="880" y="190" as="sourcePoint" />
          </mxGeometry>
        </mxCell>
        <mxCell id="jE7_QVE1kl2_efXZavg2-29" value="" style="edgeStyle=orthogonalEdgeStyle;rounded=0;orthogonalLoop=1;jettySize=auto;html=1;" parent="1" edge="1">
          <mxGeometry relative="1" as="geometry">
            <mxPoint x="895" y="290" as="sourcePoint" />
          </mxGeometry>
        </mxCell>
        <mxCell id="jE7_QVE1kl2_efXZavg2-31" value="" style="edgeStyle=orthogonalEdgeStyle;rounded=0;orthogonalLoop=1;jettySize=auto;html=1;" parent="1" edge="1">
          <mxGeometry relative="1" as="geometry">
            <mxPoint x="895" y="400" as="sourcePoint" />
          </mxGeometry>
        </mxCell>
        <mxCell id="jE7_QVE1kl2_efXZavg2-33" value="" style="edgeStyle=orthogonalEdgeStyle;rounded=0;orthogonalLoop=1;jettySize=auto;html=1;" parent="1" edge="1">
          <mxGeometry relative="1" as="geometry">
            <mxPoint x="895" y="500" as="sourcePoint" />
          </mxGeometry>
        </mxCell>
        <mxCell id="jE7_QVE1kl2_efXZavg2-35" value="" style="edgeStyle=orthogonalEdgeStyle;rounded=0;orthogonalLoop=1;jettySize=auto;html=1;" parent="1" edge="1">
          <mxGeometry relative="1" as="geometry">
            <mxPoint x="895" y="625" as="sourcePoint" />
          </mxGeometry>
        </mxCell>
        <mxCell id="jE7_QVE1kl2_efXZavg2-37" value="" style="edgeStyle=orthogonalEdgeStyle;rounded=0;orthogonalLoop=1;jettySize=auto;html=1;" parent="1" edge="1">
          <mxGeometry relative="1" as="geometry">
            <mxPoint x="900" y="810" as="sourcePoint" />
          </mxGeometry>
        </mxCell>
        <mxCell id="jE7_QVE1kl2_efXZavg2-39" value="" style="edgeStyle=orthogonalEdgeStyle;rounded=0;orthogonalLoop=1;jettySize=auto;html=1;" parent="1" edge="1">
          <mxGeometry relative="1" as="geometry">
            <mxPoint x="915" y="920" as="sourcePoint" />
          </mxGeometry>
        </mxCell>
        <mxCell id="jE7_QVE1kl2_efXZavg2-40" value="&lt;font face=&quot;Times New Roman&quot; style=&quot;font-size: 43px;&quot;&gt;Login&lt;/font&gt;" style="ellipse;whiteSpace=wrap;html=1;" parent="1" vertex="1">
          <mxGeometry x="1040" y="-250" width="210" height="110" as="geometry" />
        </mxCell>
        <mxCell id="GPTZp238KUG2nsotd78x-1" value="&lt;font size=&quot;1&quot; face=&quot;Times New Roman&quot; style=&quot;&quot;&gt;&lt;b style=&quot;font-size: 35px;&quot;&gt;CU Orbund&lt;/b&gt;&lt;/font&gt;" style="text;html=1;strokeColor=none;fillColor=none;align=center;verticalAlign=middle;whiteSpace=wrap;rounded=0;" vertex="1" parent="1">
          <mxGeometry x="960" y="-400" width="350" height="100" as="geometry" />
        </mxCell>
        <mxCell id="GPTZp238KUG2nsotd78x-2" value="&lt;font face=&quot;Times New Roman&quot; style=&quot;font-size: 34px;&quot;&gt;Go to&lt;br&gt;Menu&lt;br&gt;&lt;/font&gt;" style="ellipse;whiteSpace=wrap;html=1;" vertex="1" parent="1">
          <mxGeometry x="1040" y="-110" width="210" height="110" as="geometry" />
        </mxCell>
        <mxCell id="GPTZp238KUG2nsotd78x-3" value="&lt;font face=&quot;Times New Roman&quot; style=&quot;font-size: 34px;&quot;&gt;Provide&lt;br&gt;Clearance&lt;br&gt;&lt;/font&gt;" style="ellipse;whiteSpace=wrap;html=1;" vertex="1" parent="1">
          <mxGeometry x="1040" y="40" width="210" height="110" as="geometry" />
        </mxCell>
        <mxCell id="GPTZp238KUG2nsotd78x-4" value="" style="endArrow=none;dashed=1;html=1;rounded=0;entryX=0;entryY=0.5;entryDx=0;entryDy=0;" edge="1" parent="1" source="GPTZp238KUG2nsotd78x-6" target="GPTZp238KUG2nsotd78x-5">
          <mxGeometry width="50" height="50" relative="1" as="geometry">
            <mxPoint x="1250" y="-200" as="sourcePoint" />
            <mxPoint x="1300" y="-250" as="targetPoint" />
          </mxGeometry>
        </mxCell>
        <mxCell id="GPTZp238KUG2nsotd78x-5" value="&lt;font face=&quot;Times New Roman&quot; style=&quot;font-size: 34px;&quot;&gt;Registration&lt;br&gt;&lt;/font&gt;" style="ellipse;whiteSpace=wrap;html=1;rotation=-15;" vertex="1" parent="1">
          <mxGeometry x="1380" y="-320" width="210" height="110" as="geometry" />
        </mxCell>
        <mxCell id="GPTZp238KUG2nsotd78x-7" value="" style="endArrow=none;dashed=1;html=1;rounded=0;" edge="1" parent="1" target="GPTZp238KUG2nsotd78x-6">
          <mxGeometry width="50" height="50" relative="1" as="geometry">
            <mxPoint x="1250" y="-200" as="sourcePoint" />
            <mxPoint x="1390" y="-255" as="targetPoint" />
          </mxGeometry>
        </mxCell>
        <mxCell id="GPTZp238KUG2nsotd78x-6" value="&lt;font style=&quot;font-size: 43px;&quot;&gt;&amp;lt;&lt;/font&gt;" style="text;html=1;strokeColor=none;fillColor=none;align=center;verticalAlign=middle;whiteSpace=wrap;rounded=0;rotation=-195;" vertex="1" parent="1">
          <mxGeometry x="1351" y="-250" width="50" height="30" as="geometry" />
        </mxCell>
        <mxCell id="GPTZp238KUG2nsotd78x-8" value="&lt;font face=&quot;Times New Roman&quot; style=&quot;font-size: 28px;&quot;&gt;Email sent for&lt;br&gt;payment&lt;br&gt;&lt;/font&gt;" style="ellipse;whiteSpace=wrap;html=1;" vertex="1" parent="1">
          <mxGeometry x="1040" y="170" width="210" height="110" as="geometry" />
        </mxCell>
        <mxCell id="GPTZp238KUG2nsotd78x-9" value="&lt;font face=&quot;Times New Roman&quot; style=&quot;&quot;&gt;&lt;font style=&quot;font-size: 32px;&quot;&gt;Credit&lt;br&gt;&lt;/font&gt;&lt;font style=&quot;font-size: 32px;&quot;&gt;Check&lt;/font&gt;&lt;br&gt;&lt;/font&gt;" style="ellipse;whiteSpace=wrap;html=1;" vertex="1" parent="1">
          <mxGeometry x="1040" y="310" width="210" height="110" as="geometry" />
        </mxCell>
        <mxCell id="GPTZp238KUG2nsotd78x-10" value="&lt;font face=&quot;Times New Roman&quot; style=&quot;font-size: 32px;&quot;&gt;Credit&amp;nbsp;&lt;br&gt;Confirmation&lt;br&gt;&lt;/font&gt;" style="ellipse;whiteSpace=wrap;html=1;" vertex="1" parent="1">
          <mxGeometry x="1040" y="450" width="210" height="110" as="geometry" />
        </mxCell>
        <mxCell id="GPTZp238KUG2nsotd78x-11" value="&lt;font face=&quot;Times New Roman&quot; style=&quot;font-size: 34px;&quot;&gt;Payment&lt;br&gt;&lt;/font&gt;" style="ellipse;whiteSpace=wrap;html=1;" vertex="1" parent="1">
          <mxGeometry x="1040" y="600" width="210" height="110" as="geometry" />
        </mxCell>
        <mxCell id="GPTZp238KUG2nsotd78x-12" value="" style="endArrow=none;html=1;rounded=0;" edge="1" parent="1">
          <mxGeometry width="50" height="50" relative="1" as="geometry">
            <mxPoint x="320" y="230" as="sourcePoint" />
            <mxPoint x="320" y="140" as="targetPoint" />
          </mxGeometry>
        </mxCell>
        <mxCell id="GPTZp238KUG2nsotd78x-13" value="" style="endArrow=classic;html=1;rounded=0;entryX=0;entryY=0.5;entryDx=0;entryDy=0;" edge="1" parent="1" target="GPTZp238KUG2nsotd78x-2">
          <mxGeometry width="50" height="50" relative="1" as="geometry">
            <mxPoint x="320" y="190" as="sourcePoint" />
            <mxPoint x="1057" y="-168" as="targetPoint" />
            <Array as="points" />
          </mxGeometry>
        </mxCell>
        <mxCell id="GPTZp238KUG2nsotd78x-14" value="" style="endArrow=classic;html=1;rounded=0;entryX=0;entryY=0.5;entryDx=0;entryDy=0;" edge="1" parent="1" target="GPTZp238KUG2nsotd78x-3">
          <mxGeometry width="50" height="50" relative="1" as="geometry">
            <mxPoint x="320" y="190" as="sourcePoint" />
            <mxPoint x="1050" y="-45" as="targetPoint" />
            <Array as="points" />
          </mxGeometry>
        </mxCell>
        <mxCell id="GPTZp238KUG2nsotd78x-15" value="" style="endArrow=classic;html=1;rounded=0;entryX=0;entryY=0.5;entryDx=0;entryDy=0;" edge="1" parent="1" target="GPTZp238KUG2nsotd78x-8">
          <mxGeometry width="50" height="50" relative="1" as="geometry">
            <mxPoint x="320" y="190" as="sourcePoint" />
            <mxPoint x="1060" y="-35" as="targetPoint" />
            <Array as="points" />
          </mxGeometry>
        </mxCell>
        <mxCell id="GPTZp238KUG2nsotd78x-16" value="" style="endArrow=classic;html=1;rounded=0;entryX=0;entryY=0.5;entryDx=0;entryDy=0;" edge="1" parent="1" target="GPTZp238KUG2nsotd78x-9">
          <mxGeometry width="50" height="50" relative="1" as="geometry">
            <mxPoint x="320" y="190" as="sourcePoint" />
            <mxPoint x="1070" y="-25" as="targetPoint" />
            <Array as="points" />
          </mxGeometry>
        </mxCell>
        <mxCell id="GPTZp238KUG2nsotd78x-17" value="" style="endArrow=classic;html=1;rounded=0;entryX=0;entryY=0.5;entryDx=0;entryDy=0;" edge="1" parent="1" target="GPTZp238KUG2nsotd78x-10">
          <mxGeometry width="50" height="50" relative="1" as="geometry">
            <mxPoint x="320" y="190" as="sourcePoint" />
            <mxPoint x="1080" y="-15" as="targetPoint" />
            <Array as="points" />
          </mxGeometry>
        </mxCell>
        <mxCell id="GPTZp238KUG2nsotd78x-18" value="" style="endArrow=classic;html=1;rounded=0;entryX=0;entryY=0.5;entryDx=0;entryDy=0;" edge="1" parent="1" target="GPTZp238KUG2nsotd78x-11">
          <mxGeometry width="50" height="50" relative="1" as="geometry">
            <mxPoint x="320" y="190" as="sourcePoint" />
            <mxPoint x="1090" y="-5" as="targetPoint" />
            <Array as="points" />
          </mxGeometry>
        </mxCell>
        <mxCell id="GPTZp238KUG2nsotd78x-19" value="&lt;b style=&quot;border-color: var(--border-color); font-family: &amp;quot;Times New Roman&amp;quot;; font-size: 45px;&quot;&gt;Student&lt;/b&gt;" style="text;html=1;strokeColor=none;fillColor=none;align=center;verticalAlign=middle;whiteSpace=wrap;rounded=0;" vertex="1" parent="1">
          <mxGeometry x="75" y="450" width="250" height="40" as="geometry" />
        </mxCell>
        <mxCell id="GPTZp238KUG2nsotd78x-20" value="&lt;font style=&quot;font-size: 28px;&quot; face=&quot;Times New Roman&quot;&gt;&amp;lt;in&amp;gt;&lt;/font&gt;" style="text;html=1;strokeColor=none;fillColor=none;align=center;verticalAlign=middle;whiteSpace=wrap;rounded=0;rotation=-15;" vertex="1" parent="1">
          <mxGeometry x="1241" y="-210" width="160" height="50" as="geometry" />
        </mxCell>
        <mxCell id="GPTZp238KUG2nsotd78x-22" value="" style="ellipse;whiteSpace=wrap;html=1;aspect=fixed;" vertex="1" parent="1">
          <mxGeometry x="1970" y="70" width="80" height="80" as="geometry" />
        </mxCell>
        <mxCell id="GPTZp238KUG2nsotd78x-23" value="" style="endArrow=none;html=1;rounded=0;entryX=0.5;entryY=1;entryDx=0;entryDy=0;" edge="1" parent="1" target="GPTZp238KUG2nsotd78x-22">
          <mxGeometry width="50" height="50" relative="1" as="geometry">
            <mxPoint x="2010" y="340" as="sourcePoint" />
            <mxPoint x="2080" y="430" as="targetPoint" />
            <Array as="points" />
          </mxGeometry>
        </mxCell>
        <mxCell id="GPTZp238KUG2nsotd78x-24" value="" style="endArrow=none;html=1;rounded=0;" edge="1" parent="1">
          <mxGeometry width="50" height="50" relative="1" as="geometry">
            <mxPoint x="1930" y="240" as="sourcePoint" />
            <mxPoint x="2080" y="240" as="targetPoint" />
            <Array as="points">
              <mxPoint x="2010" y="240" />
              <mxPoint x="2050" y="240" />
            </Array>
          </mxGeometry>
        </mxCell>
        <mxCell id="GPTZp238KUG2nsotd78x-25" value="" style="endArrow=none;html=1;rounded=0;" edge="1" parent="1">
          <mxGeometry width="50" height="50" relative="1" as="geometry">
            <mxPoint x="1920" y="410" as="sourcePoint" />
            <mxPoint x="2010" y="340" as="targetPoint" />
          </mxGeometry>
        </mxCell>
        <mxCell id="GPTZp238KUG2nsotd78x-26" value="" style="endArrow=none;html=1;rounded=0;" edge="1" parent="1">
          <mxGeometry width="50" height="50" relative="1" as="geometry">
            <mxPoint x="2090" y="410" as="sourcePoint" />
            <mxPoint x="2010" y="340" as="targetPoint" />
          </mxGeometry>
        </mxCell>
        <mxCell id="GPTZp238KUG2nsotd78x-27" value="&lt;b style=&quot;border-color: var(--border-color); color: rgb(0, 0, 0); font-family: &amp;quot;Times New Roman&amp;quot;; font-size: 45px; font-style: normal; font-variant-ligatures: normal; font-variant-caps: normal; letter-spacing: normal; orphans: 2; text-align: center; text-indent: 0px; text-transform: none; widows: 2; word-spacing: 0px; -webkit-text-stroke-width: 0px; background-color: rgb(251, 251, 251); text-decoration-thickness: initial; text-decoration-style: initial; text-decoration-color: initial;&quot;&gt;Admin&lt;/b&gt;" style="text;whiteSpace=wrap;html=1;" vertex="1" parent="1">
          <mxGeometry x="1930" y="410" width="180" height="80" as="geometry" />
        </mxCell>
        <mxCell id="GPTZp238KUG2nsotd78x-28" value="" style="endArrow=none;dashed=1;html=1;rounded=0;" edge="1" parent="1">
          <mxGeometry width="50" height="50" relative="1" as="geometry">
            <mxPoint x="1600" y="-180" as="sourcePoint" />
            <mxPoint x="1580" y="-260" as="targetPoint" />
          </mxGeometry>
        </mxCell>
        <mxCell id="GPTZp238KUG2nsotd78x-29" value="&lt;font face=&quot;Times New Roman&quot; style=&quot;font-size: 34px;&quot;&gt;ID Verification&lt;br&gt;&lt;/font&gt;" style="ellipse;whiteSpace=wrap;html=1;rotation=-15;" vertex="1" parent="1">
          <mxGeometry x="1510" y="-160" width="210" height="110" as="geometry" />
        </mxCell>
        <mxCell id="GPTZp238KUG2nsotd78x-30" value="&lt;font style=&quot;font-size: 43px;&quot;&gt;&amp;lt;&lt;/font&gt;" style="text;html=1;strokeColor=none;fillColor=none;align=center;verticalAlign=middle;whiteSpace=wrap;rounded=0;rotation=-105;" vertex="1" parent="1">
          <mxGeometry x="1580" y="-180" width="50" height="30" as="geometry" />
        </mxCell>
        <mxCell id="GPTZp238KUG2nsotd78x-32" value="&lt;font style=&quot;font-size: 28px;&quot; face=&quot;Times New Roman&quot;&gt;&amp;lt;in&amp;gt;&lt;/font&gt;" style="text;html=1;strokeColor=none;fillColor=none;align=center;verticalAlign=middle;whiteSpace=wrap;rounded=0;rotation=-15;" vertex="1" parent="1">
          <mxGeometry x="1470" y="-220" width="160" height="50" as="geometry" />
        </mxCell>
        <mxCell id="GPTZp238KUG2nsotd78x-34" value="" style="endArrow=none;html=1;rounded=0;" edge="1" parent="1">
          <mxGeometry width="50" height="50" relative="1" as="geometry">
            <mxPoint x="1920" y="280" as="sourcePoint" />
            <mxPoint x="1920" y="200" as="targetPoint" />
            <Array as="points" />
          </mxGeometry>
        </mxCell>
        <mxCell id="GPTZp238KUG2nsotd78x-35" value="" style="endArrow=classic;html=1;rounded=0;entryX=0.5;entryY=1;entryDx=0;entryDy=0;" edge="1" parent="1" target="GPTZp238KUG2nsotd78x-29">
          <mxGeometry width="50" height="50" relative="1" as="geometry">
            <mxPoint x="1920" y="240" as="sourcePoint" />
            <mxPoint x="1654" y="-58" as="targetPoint" />
            <Array as="points" />
          </mxGeometry>
        </mxCell>
        <mxCell id="GPTZp238KUG2nsotd78x-36" value="" style="endArrow=none;dashed=1;html=1;rounded=0;exitX=1;exitY=0.5;exitDx=0;exitDy=0;" edge="1" parent="1" source="GPTZp238KUG2nsotd78x-2" target="GPTZp238KUG2nsotd78x-38">
          <mxGeometry width="50" height="50" relative="1" as="geometry">
            <mxPoint x="1241" y="-30" as="sourcePoint" />
            <mxPoint x="1340" y="-60" as="targetPoint" />
          </mxGeometry>
        </mxCell>
        <mxCell id="GPTZp238KUG2nsotd78x-37" value="&lt;font face=&quot;Times New Roman&quot; style=&quot;&quot;&gt;&lt;font style=&quot;font-size: 28px;&quot;&gt;Select Doc&lt;/font&gt;&lt;br&gt;&lt;/font&gt;" style="ellipse;whiteSpace=wrap;html=1;" vertex="1" parent="1">
          <mxGeometry x="1320" y="-70" width="170" height="80" as="geometry" />
        </mxCell>
        <mxCell id="GPTZp238KUG2nsotd78x-38" value="&lt;font style=&quot;font-size: 43px;&quot;&gt;&amp;lt;&lt;/font&gt;" style="text;html=1;strokeColor=none;fillColor=none;align=center;verticalAlign=middle;whiteSpace=wrap;rounded=0;rotation=-165;" vertex="1" parent="1">
          <mxGeometry x="1280" y="-50" width="50" height="30" as="geometry" />
        </mxCell>
        <mxCell id="GPTZp238KUG2nsotd78x-39" value="&lt;font face=&quot;Times New Roman&quot; style=&quot;font-size: 34px;&quot;&gt;Email Sent for&lt;br&gt;Doc Collection&lt;br&gt;&lt;/font&gt;" style="ellipse;whiteSpace=wrap;html=1;" vertex="1" parent="1">
          <mxGeometry x="1005" y="730" width="280" height="120" as="geometry" />
        </mxCell>
        <mxCell id="GPTZp238KUG2nsotd78x-40" value="" style="endArrow=classic;html=1;rounded=0;entryX=0.5;entryY=1;entryDx=0;entryDy=0;" edge="1" parent="1">
          <mxGeometry width="50" height="50" relative="1" as="geometry">
            <mxPoint x="1920" y="240" as="sourcePoint" />
            <mxPoint x="1250" y="100" as="targetPoint" />
            <Array as="points" />
          </mxGeometry>
        </mxCell>
        <mxCell id="GPTZp238KUG2nsotd78x-41" value="" style="endArrow=classic;html=1;rounded=0;entryX=0.5;entryY=1;entryDx=0;entryDy=0;" edge="1" parent="1">
          <mxGeometry width="50" height="50" relative="1" as="geometry">
            <mxPoint x="1920" y="240" as="sourcePoint" />
            <mxPoint x="1250" y="510" as="targetPoint" />
            <Array as="points" />
          </mxGeometry>
        </mxCell>
        <mxCell id="GPTZp238KUG2nsotd78x-42" value="" style="endArrow=classic;html=1;rounded=0;entryX=1;entryY=0;entryDx=0;entryDy=0;" edge="1" parent="1" target="GPTZp238KUG2nsotd78x-11">
          <mxGeometry width="50" height="50" relative="1" as="geometry">
            <mxPoint x="1920" y="240" as="sourcePoint" />
            <mxPoint x="1469" y="293" as="targetPoint" />
            <Array as="points" />
          </mxGeometry>
        </mxCell>
        <mxCell id="GPTZp238KUG2nsotd78x-45" value="&lt;font face=&quot;Times New Roman&quot; style=&quot;font-size: 34px;&quot;&gt;Bank&lt;br&gt;&lt;/font&gt;" style="ellipse;whiteSpace=wrap;html=1;rotation=-15;" vertex="1" parent="1">
          <mxGeometry x="1330" y="560" width="101" height="50" as="geometry" />
        </mxCell>
        <mxCell id="GPTZp238KUG2nsotd78x-46" value="" style="endArrow=classic;html=1;rounded=0;entryX=1;entryY=0.5;entryDx=0;entryDy=0;" edge="1" parent="1" target="GPTZp238KUG2nsotd78x-39">
          <mxGeometry width="50" height="50" relative="1" as="geometry">
            <mxPoint x="1920" y="240" as="sourcePoint" />
            <mxPoint x="1285" y="790" as="targetPoint" />
            <Array as="points" />
          </mxGeometry>
        </mxCell>
        <mxCell id="GPTZp238KUG2nsotd78x-44" value="&lt;font face=&quot;Times New Roman&quot; style=&quot;font-size: 34px;&quot;&gt;Bkash&lt;br&gt;&lt;/font&gt;" style="ellipse;whiteSpace=wrap;html=1;rotation=-15;" vertex="1" parent="1">
          <mxGeometry x="1320" y="630" width="106" height="50" as="geometry" />
        </mxCell>
        <mxCell id="GPTZp238KUG2nsotd78x-47" value="" style="endArrow=none;dashed=1;html=1;rounded=0;entryX=0.058;entryY=0.701;entryDx=0;entryDy=0;entryPerimeter=0;exitX=1;exitY=0.5;exitDx=0;exitDy=0;" edge="1" parent="1" source="GPTZp238KUG2nsotd78x-11" target="GPTZp238KUG2nsotd78x-45">
          <mxGeometry width="50" height="50" relative="1" as="geometry">
            <mxPoint x="1270" y="730" as="sourcePoint" />
            <mxPoint x="1320" y="680" as="targetPoint" />
            <Array as="points" />
          </mxGeometry>
        </mxCell>
        <mxCell id="GPTZp238KUG2nsotd78x-48" value="" style="endArrow=none;dashed=1;html=1;rounded=0;exitX=1;exitY=0.5;exitDx=0;exitDy=0;entryX=0;entryY=0.5;entryDx=0;entryDy=0;" edge="1" parent="1" source="GPTZp238KUG2nsotd78x-11" target="GPTZp238KUG2nsotd78x-44">
          <mxGeometry width="50" height="50" relative="1" as="geometry">
            <mxPoint x="1270" y="730" as="sourcePoint" />
            <mxPoint x="1320" y="680" as="targetPoint" />
          </mxGeometry>
        </mxCell>
      </root>
    </mxGraphModel>
  </diagram>
</mxfile>
